<?xml version="1.0" encoding="UTF-8"?>
<svg width="82px" height="100px" viewBox="0 0 82 100" version="1.1" xmlns="http://www.w3.org/2000/svg" xmlns:xlink="http://www.w3.org/1999/xlink">
    <title>noun_Box_3658118</title>
    <g id="页面-1" stroke="none" stroke-width="1" fill="none" fill-rule="evenodd">
        <g id="画板" transform="translate(-332.000000, -582.000000)" fill="#000000" fill-rule="nonzero">
            <g id="编组-4" transform="translate(214.000000, 582.000000)">
                <g id="noun_Box_3658118" transform="translate(118.000000, 0.000000)">
                    <path d="M39.5628634,100 C39.4028703,100 39.2456835,99.9747948 39.091303,99.921583 L7.96557432,89.1193804 C7.38735124,88.9177319 7,88.3744023 7,87.7638543 L7,56.4341042 C7,55.9803968 7.2161314,55.5518947 7.58102758,55.2816306 C7.9459254,55.0113665 8.41748422,54.9301414 8.85536146,55.0617768 L39.9810935,64.5154532 C40.5873841,64.7003004 41,65.25763 41,65.8877806 L41,98.5660567 C41,99.0309694 40.7754464,99.4650741 40.3965155,99.7339343 C40.1495069,99.9103777 39.8575899,100 39.5628634,100 Z M9.8742661,86.7444066 L38.1257285,96.5495654 L38.1257285,66.9492416 L9.8742661,58.3707747 L9.8742661,86.7444066 Z" id="形状"></path>
                    <path d="M38.5614366,66 C38.0837434,66 37.6144814,65.761274 37.3419145,65.3231434 L30.8396593,54.9259992 L4.69015389,46.0580874 L9.98693161,54.8852695 C10.3971864,55.5663364 10.1751989,56.4510247 9.49237907,56.858261 C8.82360734,57.2711156 7.93003897,57.0464285 7.51978419,56.3653618 L0.205454338,44.1777787 C-0.106452898,43.659607 -0.0586828131,43.0038194 0.317851842,42.5347948 C0.700006881,42.0657702 1.3294381,41.8832175 1.90267148,42.0756023 L32.2502614,52.367433 C32.5621687,52.4741547 32.8319226,52.6861969 33.0061401,52.967054 L39.780962,63.8009274 C40.2024557,64.4721655 39.9973291,65.3596563 39.3229371,65.7809385 C39.0869017,65.9297841 38.8227627,66 38.5614366,66 Z" id="路径"></path>
                    <polygon id="路径" points="39 65.4230753 72 56 72 87.2307672 39 98"></polygon>
                    <path d="M39.4522545,100 C39.1515914,100 38.8537674,99.9075751 38.6013262,99.7283277 C38.2240802,99.4594638 38,99.0253527 38,98.566036 L38,65.8872845 C38,65.2487207 38.4283034,64.6885816 39.0494799,64.5093345 L72.1449707,55.0555205 C72.5761099,54.9322873 73.0554709,55.0163081 73.4213667,55.286583 C73.7844339,55.5582482 74,55.982558 74,56.4334706 L74,87.7636763 C74,88.3826304 73.5972254,88.9315709 73.0044133,89.1248248 L39.9089189,99.9271848 C39.7585892,99.9747944 39.6054236,100 39.4522545,100 Z M40.9045091,66.9655622 L40.9045091,96.583125 L71.0954906,86.7274124 L71.0954906,58.3421621 L40.9045091,66.9655622 Z" id="形状"></path>
                    <polygon id="路径" points="44.9459429 51.4395633 79 41 71.7027025 56.3846157 39 66"></polygon>
                    <path d="M39.4391538,67 C39.0343333,67 38.6435695,66.8285678 38.3652562,66.5114105 C37.9969801,66.0914037 37.8985858,65.4942418 38.1094311,64.9770805 L44.0749073,50.3723828 C44.240773,49.9680839 44.5753151,49.659504 44.9885672,49.5337841 L79.1452929,39.0634856 C79.696298,38.8934823 80.2838546,39.0720593 80.6549342,39.5135003 C81.0260207,39.9535124 81.1047377,40.5763848 80.8573444,41.0992587 L73.5368436,56.5282689 C73.3597355,56.9025633 73.0336322,57.1825747 72.640054,57.2968629 L39.838353,66.9428559 C39.7062246,66.9799946 39.5712822,67 39.4391538,67 Z M46.4729063,52.1338567 L41.9186803,63.2856076 L71.2231825,54.6682151 L76.8428743,42.8250232 L46.4729063,52.1338567 Z" id="形状"></path>
                    <path d="M53.4590576,50 C53.2931977,50 53.1273448,49.9723105 52.9699161,49.9155537 L38.9506877,44.9389431 C38.5515059,44.7977434 38.2366557,44.490427 38.0904761,44.0986644 C37.9414824,43.7069018 37.978029,43.2708442 38.1888672,42.906771 L45.7789808,29.7170191 C46.1163217,29.1300691 46.8331675,28.8642786 47.4741096,29.0677738 L54.9461623,31.4598717 C55.7023619,31.7021268 56.1155996,32.5022609 55.8710323,33.2470195 C55.626458,33.9903968 54.8140352,34.4001565 54.0578356,34.1565167 L47.7018141,32.121572 L41.5341432,42.8417062 L53.4984183,47.0901672 L74.7451252,40.7790789 L65.6397953,37.863711 C64.8835957,37.6214559 64.4703511,36.8213218 64.7149253,36.0779445 C64.9594926,35.3345672 65.7747261,34.9275801 66.5281151,35.167066 L80.0047959,39.4805916 C80.6035739,39.6716251 81.0055697,40.2239656 81,40.8441401 C80.9943207,41.4629301 80.5782725,42.0069662 79.9766841,42.1855411 L53.8751128,49.9390893 C53.740175,49.9792337 53.5996163,50 53.4590576,50 Z" id="路径"></path>
                    <path d="M19.4204074,51 C18.8051566,51 18.2397894,50.5847572 18.0568761,49.9432813 C17.8379367,49.165777 18.2702742,48.3524744 19.0240961,48.1262377 L39.1832801,42.0594039 C39.942647,41.8317351 40.7214089,42.2784794 40.9431226,43.0574161 C41.1620656,43.834924 40.7297246,44.6482264 39.9759026,44.8744596 L19.8167186,50.9412969 C19.683689,50.9813847 19.5506627,51 19.4204074,51 Z" id="路径"></path>
                    <path d="M27.6845875,39 C27.1677442,39 26.6878197,38.7245262 26.4265591,38.2772331 L24.0326186,34.1550567 L19.7899791,31.9796615 C19.3185721,31.7368443 19.0147142,31.2554743 19.0005186,30.7244039 C18.9863195,30.1933371 19.2646184,29.6963437 19.7246621,29.4293917 L23.845192,27.0324771 L26.0204687,22.7896023 C26.2646913,22.3167542 26.7446157,22.0142978 27.2784971,22.0000486 C27.8010151,21.9958374 28.3064986,22.2656335 28.5734374,22.7228652 L30.9673779,26.8450416 L35.2100209,29.0204403 C35.6814244,29.263254 35.9852824,29.744624 35.9994814,30.2756944 C36.0136805,30.8067647 35.7353816,31.3037546 35.2753379,31.5707066 L31.1548045,33.9676212 L28.9795278,38.210496 C28.7353087,38.6833476 28.2553843,38.9858005 27.7215029,39 C27.710143,39 27.6959439,39 27.6845875,39 Z M23.4845416,30.6065461 L25.7393308,31.762403 C25.9863925,31.8887826 26.1908572,32.0847366 26.3328475,32.3247131 L27.6050715,34.5157282 L28.7608642,32.2608132 C28.8886554,32.0137386 29.0845992,31.8078423 29.3259828,31.6686869 L31.5154586,30.393552 L29.2606694,29.2376952 C29.0136077,29.1113155 28.809143,28.9153615 28.6671527,28.675385 L27.3949286,26.4843699 L26.2391325,28.739285 C26.1113448,28.9863595 25.9153975,29.1922558 25.6740174,29.3314112 L23.4845416,30.6065461 Z" id="形状"></path>
                    <path d="M45.6845875,17 C45.1677444,17 44.6878237,16.7245226 44.4265631,16.2772287 L42.0326236,12.1550269 L37.7899823,9.97819881 C37.3185754,9.73538192 37.0147176,9.25400925 37.0005186,8.72293569 C36.9863195,8.19186394 37.2646218,7.69487118 37.7246653,7.42791418 L41.8451936,5.03240856 L44.0176339,0.790928849 C44.2618529,0.31807547 44.7417736,0.014199606 45.2728191,0 C45.8265776,0.00567958749 46.3036592,0.262696079 46.5677589,0.722770158 L48.9673767,4.84355167 L53.2100214,7.0203807 C53.6814248,7.26319759 53.9852791,7.74457026 53.9994817,8.275642 C54.0136773,8.80671539 53.7353819,9.30370815 53.275335,9.57066533 L49.1548067,11.9675904 L46.9795273,16.2104896 C46.7353083,16.6833439 46.2553806,16.9858002 45.7215029,17 C45.7101463,17 45.6959439,17 45.6845875,17 Z M41.4845431,8.60507738 L43.7393314,9.76236119 C43.9863966,9.88873989 44.1908612,10.0846967 44.3328443,10.3246746 L45.6050712,12.5157023 L46.7608669,10.2607743 C46.888655,10.0136981 47.0846022,9.80780081 47.3259822,9.66864281 L49.5154571,8.3935005 L47.2606688,7.23621668 C47.0136037,7.1098398 46.8091391,6.9138812 46.669988,6.67390493 L45.3949288,4.48429659 L44.2391331,6.73780525 C44.1113454,6.98630172 43.9153982,7.19219719 43.6740182,7.33135519 L41.4845431,8.60507738 Z" id="形状"></path>
                    <path d="M60.6702984,36 C60.6131755,36 60.5560527,35.9971445 60.49893,35.9900092 C59.9676921,35.9272016 59.5135649,35.5803353 59.3136352,35.0850201 L57.5199915,30.6400188 L53.6128177,27.8636785 C53.1786857,27.5539271 52.9473461,27.031488 53.0101799,26.5004855 C53.0701581,25.9694866 53.4186059,25.5155625 53.9155716,25.3157246 L58.3625497,23.5243073 L61.1415585,19.6188716 C61.4500161,19.182079 61.9698323,18.9379906 62.5039257,19.0136429 C63.0351637,19.0764505 63.4892908,19.4233151 63.6892206,19.9200579 L65.4800087,24.3650609 L69.3871825,27.1414012 C69.8213075,27.4511526 70.0526541,27.9735882 69.9898204,28.5045907 C69.9269866,29.0355932 69.5813943,29.4895137 69.0844286,29.6893553 L64.6374505,31.4793448 L61.8612972,35.3847805 C61.5871117,35.7730379 61.141558,36 60.6702984,36 Z M57.4857189,27.0286357 L59.5649767,28.5045906 C59.7906126,28.6673173 59.9676919,28.8914237 60.0733642,29.1497861 L61.0273124,31.5136039 L62.5039252,29.4367002 C62.6638718,29.2083104 62.8895007,29.0313096 63.1494088,28.9271109 L65.5114252,27.9764437 L63.4350229,26.5004855 C63.2065317,26.3377587 63.0323078,26.1136558 62.9266355,25.8538622 L61.9755428,23.4900478 L60.4960745,25.5669515 C60.3361278,25.7953379 60.1104989,25.9723386 59.8505908,26.0765408 L57.4857189,27.0286357 Z" id="形状"></path>
                    <path d="M38.5013957,23 C37.1210255,23 36,21.8789737 36,20.5 C36,19.1210263 37.1210253,18 38.5013957,18 C39.8789747,18 41,19.1210263 41,20.5 C41,21.8789737 39.8789745,23 38.5013957,23 Z M38.5013957,19.427774 C37.9102053,19.427774 37.4277759,19.9088113 37.4277759,20.4999998 C37.4277759,21.0911883 37.9102053,21.5722274 38.5013957,21.5722274 C39.0925828,21.5722274 39.5722243,21.0911883 39.5722243,20.4999998 C39.5722243,19.9088113 39.0925828,19.427774 38.5013957,19.427774 Z" id="形状"></path>
                    <path d="M79.501394,34 C78.1210262,34 77,32.8789737 77,31.5 C77,30.1210263 78.1210261,29 79.501394,29 C80.8789739,29 82,30.1210263 82,31.5 C82,32.8789737 80.8789739,34 79.501394,34 Z M79.501394,30.4277758 C78.9102032,30.4277758 78.4277701,30.9088149 78.4277701,31.4999998 C78.4277701,32.0911883 78.9102032,32.5722274 79.501394,32.5722274 C80.092578,32.5722274 80.5722233,32.0911883 80.5722233,31.4999998 C80.5722233,30.9088149 80.092578,30.4277758 79.501394,30.4277758 Z" id="形状"></path>
                    <path d="M15.4986043,43 C14.1210253,43 13,41.8789737 13,40.5 C13,39.1210263 14.1210253,38 15.4986043,38 C16.8789711,38 18,39.1210263 18,40.5 C18,41.8789737 16.8789711,43 15.4986043,43 Z M15.4986043,39.4277758 C14.9074172,39.4277758 14.4277723,39.9088115 14.4277723,40.4999998 C14.4277723,41.0911882 14.9074172,41.5722274 15.4986043,41.5722274 C16.0897913,41.5722274 16.5722241,41.0911883 16.5722241,40.4999998 C16.5722241,39.9088113 16.0897913,39.4277758 15.4986043,39.4277758 Z" id="形状"></path>
                </g>
            </g>
        </g>
    </g>
</svg>