<?xml version="1.0" encoding="UTF-8"?>
<svg width="82px" height="83px" viewBox="0 0 82 83" version="1.1" xmlns="http://www.w3.org/2000/svg" xmlns:xlink="http://www.w3.org/1999/xlink">
    <title>noun_extension_3802960</title>
    <g id="页面-1" stroke="none" stroke-width="1" fill="none" fill-rule="evenodd">
        <g id="画板" transform="translate(-1045.000000, -600.000000)" fill="#000000" fill-rule="nonzero">
            <g id="编组-4" transform="translate(214.000000, 582.000000)">
                <g id="编组" transform="translate(831.000000, 18.000000)">
                    <path d="M26.8077107,34.5245822 C21.6009146,34.5245822 17.3461728,38.7588158 17.3461728,43.9403827 C17.3461728,49.122009 21.6009146,53.3561833 26.8077107,53.3561833 C32.0145068,53.3561833 36.2692486,49.122009 36.2692486,43.9403827 C36.2692486,38.7587565 32.0145068,34.5245822 26.8077107,34.5245822 L26.8077107,34.5245822 Z M26.8077107,37.6631428 C30.3100591,37.6631428 33.1153828,40.4550241 33.1153828,43.9403827 C33.1153828,47.4258007 30.3099995,50.2175633 26.8077107,50.2175633 C23.3053623,50.2175633 20.499979,47.4258007 20.499979,43.9403827 C20.499979,40.4549648 23.3053623,37.6631428 26.8077107,37.6631428 Z" id="形状"></path>
                    <path d="M52.0384587,50.2175633 C52.0384587,50.2175633 51.7505895,50.2175633 51.5044405,50.3065315 L34.4159196,56.4949218 L18.9227779,56.4949218 C18.5031922,56.4952777 18.1004138,56.6598096 17.8046774,56.9557771 L0.460113845,74.2165557 C0,74.677411 0,75.3265229 0,75.3265229 C0,76.8958626 1.57690312,76.8958626 1.57690312,76.8958626 C1.57690312,76.8958626 1.8462962,76.8958626 2.11330527,76.7997769 L17.3461728,71.2855875 L17.3461132,80.0342453 C17.3427755,80.9012106 18.0518396,81.6005007 18.9230163,81.6035849 L34.6922263,81.6035849 C35.563403,81.6005007 36.2725267,80.9012106 36.269189,80.0342453 L36.269189,69.6985136 L53.157632,52.9011999 C53.6153618,52.4456828 53.6153618,51.786903 53.6153618,51.786903 C53.6153618,50.2175633 52.0384587,50.2175633 52.0384587,50.2175633 L52.0384587,50.2175633 Z M45.8937336,55.6816339 L33.5779402,67.938011 C33.2805351,68.2321991 33.1154424,68.631607 33.1154424,69.0491644 L33.1154424,78.4649649 L20.5000386,78.4649649 L20.499979,69.0491644 C20.4951514,67.9671332 19.411321,67.2152927 18.3871505,67.5788167 L7.72431017,71.4364183 L19.5745065,59.6334232 L34.6924051,59.6334232 C34.8747818,59.6335418 35.0595426,59.6037671 35.2311913,59.53971 L45.8937336,55.6816339 Z" id="形状"></path>
                    <path d="M55.3546756,9.41384324 L45.7305482,9.41603779 C44.8548419,9.41271631 44.1502478,10.1139043 44.1535855,10.9853774 L44.1535259,20.5670147 C43.6183157,20.4531354 43.1285209,20.4021269 42.5766227,20.4009407 C38.2407053,20.4009407 34.6919879,23.9324442 34.6919879,28.2474016 C34.6919879,32.562359 38.2407649,36.0939218 42.5766227,36.0939218 C43.1279249,36.0926763 43.6188521,36.0405409 44.1535259,35.9266616 L44.1535259,45.5097224 C44.1566251,46.3766878 44.8593119,47.0823242 45.7304886,47.0790144 L57.6274711,47.0790144 C58.8378923,47.0749695 59.5927294,45.7670777 58.9894557,44.722769 C58.5722541,44.0076427 58.3476804,43.1981507 58.3458328,42.3711024 C58.3457732,39.7524126 60.4451916,37.6632021 63.0766017,37.6632021 C65.7080119,37.6632021 67.8074303,39.7524126 67.8073707,42.3711024 C67.8055827,43.1981507 67.5904258,44.0076427 67.1728666,44.722769 C66.5695929,45.7670184 67.3242512,47.0749101 68.5347916,47.0790144 L80.4227745,47.0790144 C81.2939512,47.0823242 81.9965784,46.3766878 81.9999879,45.5097224 L81.9999879,33.6712586 C82.0007504,32.4577917 80.6802475,31.7022145 79.6283629,32.3159171 C78.9097032,32.731102 78.0999148,32.9534632 77.2689086,32.9553019 C74.6374985,32.9553019 72.5381397,30.8660914 72.5381397,28.2474016 C72.5380801,25.6287118 74.6374389,23.5395013 77.2689086,23.5395013 C78.0999148,23.54134 78.9097032,23.7565837 79.6283629,24.1720652 C80.6802475,24.7857678 82.0007504,24.0303092 81.9999879,22.8167237 L81.9999879,10.9851402 C82.0033728,10.1136077 81.2988384,9.41247906 80.4230725,9.41580054 L70.7957267,9.41354668 C70.9101591,8.88151688 70.9602233,8.3950981 70.9614154,7.84652022 C70.9614154,3.53162212 67.4125787,0 63.0767805,0 C58.7409824,0 55.1922053,3.53162212 55.1922053,7.84652022 C55.1922053,8.4058336 55.2398855,8.9916595 55.354914,9.41396186 L55.3546756,9.41384324 Z M67.1725686,10.2015676 C66.5692949,11.245817 67.3239532,12.5506245 68.5344936,12.5546577 L78.8458118,12.5546577 L78.8481362,20.5731831 C78.3671623,20.4450689 77.9730259,20.401178 77.268849,20.401178 C72.9329317,20.401178 69.3842738,23.9327408 69.3842738,28.2476389 C69.3842738,32.562537 72.9329913,36.0940998 77.268849,36.0941591 C77.8588914,36.0941591 78.4569202,36.0241708 78.8458118,35.9203745 L78.8458118,43.9402641 L70.7954287,43.9348667 C70.9098611,43.4028369 70.9599253,42.9195024 70.9611174,42.3709245 C70.961177,38.0560264 67.4123403,34.5245229 63.0764825,34.5244636 C58.7405651,34.5245229 55.1919073,38.0560264 55.1919073,42.3709245 C55.1931589,42.9195617 55.2395875,43.4027776 55.354616,43.9348667 L47.3074513,43.9402641 L47.3074513,33.6710807 C47.3033389,32.4666292 45.9882,31.7154411 44.9388782,32.3157392 C44.2202185,32.7309241 43.4077481,32.9532853 42.5766823,32.9551239 C39.9452722,32.9551239 37.8459134,30.8659135 37.8459134,28.2472237 C37.8459134,25.6285932 39.9452722,23.5393827 42.5766823,23.5393827 C43.4077481,23.5412214 44.2202185,23.7564651 44.9388782,24.1719466 C45.9882,24.7721853 47.3033389,24.0212938 47.3074513,22.8166051 L47.3074513,12.5543019 L57.6271731,12.5543019 C58.8375943,12.5502686 59.5924314,11.2454611 58.9891577,10.2011524 C58.5719561,9.48596679 58.3476804,8.67344993 58.3458924,7.84640159 C58.351018,5.2322788 60.4468604,3.13850133 63.0766613,3.13850133 C65.7065219,3.13850133 67.8074303,5.22771177 67.8074303,7.84640159 C67.8193504,8.74349755 67.5171771,9.60726009 67.1725686,10.2015676 L67.1725686,10.2015676 Z" id="形状"></path>
                    <path d="M77.2687894,80.0343639 C77.2687996,80.4505717 77.1026672,80.8497365 76.80694,81.1440453 C76.5112128,81.4383541 76.1101155,81.6036983 75.6918863,81.6037035 C75.2736468,81.603714 74.8725343,81.4383767 74.5767941,81.1440662 C74.281054,80.8497557 74.1149134,80.450582 74.1149236,80.0343639 C74.1149292,79.6181561 74.2810768,79.2189975 74.5768152,78.9246999 C74.8725536,78.6304022 75.2736571,78.4650731 75.6918863,78.4650836 C76.5627808,78.4650945 77.2687777,79.1676786 77.2687894,80.0343639 L77.2687894,80.0343639 Z" id="路径"></path>
                    <path d="M70.9611174,80.0343639 C70.9611275,80.450582 70.7949869,80.8497557 70.4992468,81.1440662 C70.2035067,81.4383767 69.8023941,81.603714 69.3841546,81.6037035 C68.9659254,81.6036983 68.5648282,81.4383541 68.269101,81.1440453 C67.9733737,80.8497365 67.8072413,80.4505717 67.8072515,80.0343639 C67.8072632,79.1676786 68.5132602,78.4650945 69.3841546,78.4650836 C69.8023838,78.4650731 70.2034873,78.6304022 70.4992258,78.9246999 C70.7949642,79.2189975 70.9611117,79.6181561 70.9611174,80.0343639 L70.9611174,80.0343639 Z" id="路径"></path>
                    <path d="M64.6533857,80.0343639 C64.6533958,80.4505717 64.4872634,80.8497365 64.1915362,81.1440453 C63.895809,81.4383541 63.4947117,81.6036983 63.0764825,81.6037035 C62.6582533,81.6036983 62.2571561,81.4383541 61.9614289,81.1440453 C61.6657016,80.8497365 61.4995692,80.4505717 61.4995794,80.0343639 C61.4995911,79.1676786 62.2055881,78.4650945 63.0764825,78.4650836 C63.947377,78.4650945 64.6533739,79.1676786 64.6533857,80.0343639 L64.6533857,80.0343639 Z" id="路径"></path>
                    <path d="M63.0765421,70.6185633 C63.0765421,72.1878437 61.499639,72.1878437 61.499639,72.1878437 L48.8842352,72.1878437 C47.8327082,72.1878437 47.3072725,71.4034407 47.3072725,70.6185633 C47.3072725,69.8336859 47.8329466,69.0492237 48.8842352,69.0492237 L61.499639,69.0492237 C61.499639,69.0492237 63.0765421,69.0492237 63.0765421,70.6185633 Z" id="路径"></path>
                    <path d="M72.5380801,70.6185633 C72.5380801,72.1878437 70.961177,72.1878437 70.961177,72.1878437 L67.8073111,72.1878437 C66.7557841,72.1878437 66.2303484,71.4034407 66.2303484,70.6185633 C66.2303484,69.8336859 66.7560225,69.0492237 67.8073111,69.0492237 L70.961177,69.0492237 C70.961177,69.0492237 72.5380801,69.0492237 72.5380801,70.6185633 Z" id="路径"></path>
                    <path d="M55.1918477,64.3413828 C55.191836,65.208068 54.4858391,65.9106522 53.6149446,65.9106631 C52.7440501,65.9106522 52.0380532,65.208068 52.0380415,64.3413828 C52.0380313,63.9251749 52.2041637,63.5260102 52.4998909,63.2317014 C52.7956182,62.9373926 53.1967154,62.7720484 53.6149446,62.7720431 C54.0331738,62.7720484 54.434271,62.9373926 54.7299983,63.2317014 C55.0257255,63.5260102 55.1918579,63.9251749 55.1918477,64.3413828 L55.1918477,64.3413828 Z" id="路径"></path>
                    <path d="M58.3457136,64.3413234 C58.3457136,65.9106631 59.9226167,65.9106631 59.9226167,65.9106631 L75.6918863,65.9106631 C76.7434133,65.9106631 77.2687894,65.1262602 77.2687894,64.3413234 C77.2687894,63.5565053 76.7431153,62.7720431 75.6918863,62.7720431 L59.9226167,62.7720431 C59.9226167,62.7720431 58.3457136,62.7720431 58.3457136,64.3413234 Z" id="路径"></path>
                    <path d="M77.2687894,58.0642022 C77.2687793,58.48041 77.4349117,58.8795748 77.7306389,59.1738836 C78.0263661,59.4681924 78.4274634,59.6335366 78.8456926,59.6335418 C79.2639321,59.6335523 79.6650446,59.468215 79.9607848,59.1739045 C80.2565249,58.879594 80.4226655,58.4804203 80.4226553,58.0642022 C80.4226655,57.6479841 80.2565249,57.2488103 79.9607848,56.9544998 C79.6650446,56.6601893 79.2639321,56.494852 78.8456926,56.4948625 C78.4274634,56.4948678 78.0263661,56.660212 77.7306389,56.9545208 C77.4349117,57.2488296 77.2687793,57.6479944 77.2687894,58.0642022 L77.2687894,58.0642022 Z" id="路径"></path>
                    <path d="M74.1149236,58.0641429 C74.1149236,59.6334825 72.5380205,59.6334825 72.5380205,59.6334825 L66.2303484,59.6334825 C65.1788214,59.6334825 64.6533857,58.8490203 64.6533857,58.0641429 C64.6533857,57.2793248 65.1790598,56.4948625 66.2303484,56.4948625 L72.5380205,56.4948625 C72.5380205,56.4948625 74.1149236,56.4948625 74.1149236,58.0641429 Z" id="路径"></path>
                    <path d="M4.73076897,3.13850133 C4.73078069,2.27181603 5.43677762,1.56923191 6.30767209,1.56922101 C7.17856657,1.56923191 7.8845635,2.27181603 7.88457522,3.13850133 C7.8845854,3.55470914 7.71845299,3.95387392 7.42272576,4.24818272 C7.12699853,4.54249152 6.72590128,4.70783572 6.30767209,4.70784096 C5.88944291,4.70783572 5.48834566,4.54249152 5.19261843,4.24818272 C4.89689119,3.95387392 4.73075879,3.55470914 4.73076897,3.13850133 Z" id="路径"></path>
                    <path d="M11.0384411,3.13850133 C11.0384528,2.27181603 11.7444497,1.56923191 12.6153442,1.56922101 C13.0335734,1.56921051 13.4346769,1.73453962 13.7304153,2.0288373 C14.0261537,2.32313498 14.1923013,2.72229351 14.1923069,3.13850133 C14.1923171,3.55471942 14.0261765,3.95389318 13.7304364,4.24820369 C13.4346963,4.5425142 13.0335837,4.70785145 12.6153442,4.70784096 C12.197115,4.70783572 11.7960178,4.54249152 11.5002905,4.24818272 C11.2045633,3.95387392 11.0384309,3.55470914 11.0384411,3.13850133 L11.0384411,3.13850133 Z" id="路径"></path>
                    <path d="M17.3461132,3.13850133 C17.3461188,2.72229351 17.5122663,2.32313498 17.8080048,2.0288373 C18.1037432,1.73453962 18.5048467,1.56921051 18.9230759,1.56922101 C19.7939704,1.56923191 20.4999673,2.27181603 20.499979,3.13850133 C20.4999892,3.55470914 20.3338568,3.95387392 20.0381295,4.24818272 C19.7424023,4.54249152 19.3413051,4.70783572 18.9230759,4.70784096 C18.5048364,4.70785145 18.1037238,4.5425142 17.8079837,4.24820369 C17.5122436,3.95389318 17.346103,3.55471942 17.3461132,3.13850133 L17.3461132,3.13850133 Z" id="路径"></path>
                    <path d="M18.9230163,12.5543019 C18.9230163,10.9850215 20.4999194,10.9850215 20.4999194,10.9850215 L33.1153232,10.9850215 C34.1668502,10.9850215 34.6922859,11.7694838 34.6922859,12.5543019 C34.6922859,13.3392386 34.1666118,14.1236415 33.1153232,14.1236415 L20.4999194,14.1236415 C20.4999194,14.1236415 18.9230163,14.1236415 18.9230163,12.5543019 L18.9230163,12.5543019 Z" id="路径"></path>
                    <path d="M9.46147834,12.5543019 C9.46147834,10.9850215 11.0383815,10.9850215 11.0383815,10.9850215 L14.1922473,10.9850215 C15.2437743,10.9850215 15.76921,11.7694838 15.76921,12.5543019 C15.76921,13.3392386 15.2435359,14.1236415 14.1922473,14.1236415 L11.0383815,14.1236415 C11.0383815,14.1236415 9.46147834,14.1236415 9.46147834,12.5543019 L9.46147834,12.5543019 Z" id="路径"></path>
                    <path d="M26.8072339,18.8316604 C26.8072237,18.4154423 26.9733643,18.0162685 27.2691044,17.721958 C27.5648445,17.4276475 27.9659571,17.2623103 28.3841966,17.2623208 C28.8024258,17.262326 29.2035231,17.4276702 29.4992503,17.721979 C29.7949775,18.0162878 29.9611099,18.4154526 29.9610997,18.8316604 C29.9611099,19.2478682 29.7949775,19.647033 29.4992503,19.9413418 C29.2035231,20.2356506 28.8024258,20.4009948 28.3841966,20.401 C27.9659571,20.4010105 27.5648445,20.2356733 27.2691044,19.9413628 C26.9733643,19.6470522 26.8072237,19.2478785 26.8072339,18.8316604 L26.8072339,18.8316604 Z" id="路径"></path>
                    <path d="M23.6534277,18.8316604 C23.6534277,17.2623208 22.0764649,17.2623208 22.0764649,17.2623208 L6.30725489,17.2623208 C5.25572788,17.2623208 4.73035177,18.046783 4.73035177,18.8316604 C4.73035177,19.6164785 5.25602588,20.401 6.30725489,20.401 L22.0764649,20.401 C22.0764649,20.401 23.6534277,20.401 23.6534277,18.8316604 Z" id="路径"></path>
                    <path d="M4.73035177,25.108841 C4.73034614,24.6926332 4.56419858,24.2934746 4.26846017,23.999177 C3.97272176,23.7048793 3.57161823,23.5395502 3.15338905,23.5395607 C2.28249457,23.5395716 1.57649764,24.2421557 1.57648592,25.108841 C1.57647574,25.5250488 1.74260815,25.9242136 2.03833538,26.2185224 C2.33406261,26.5128312 2.73515986,26.6781754 3.15338905,26.6781806 C3.57162856,26.6781911 3.97274112,26.5128538 4.26848124,26.2185433 C4.56422136,25.9242328 4.73036195,25.5250591 4.73035177,25.108841 L4.73035177,25.108841 Z" id="路径"></path>
                    <path d="M7.88415802,25.1089003 C7.88415802,23.5395607 9.46112074,23.5395607 9.46112074,23.5395607 L15.7687928,23.5395607 C16.8203198,23.5395607 17.345696,24.3240229 17.345696,25.1089003 C17.345696,25.8937184 16.8206179,26.6781806 15.7687928,26.6781806 L9.46112074,26.6781806 C9.46112074,26.6781806 7.88415802,26.6781806 7.88415802,25.1089003 L7.88415802,25.1089003 Z" id="路径"></path>
                </g>
            </g>
        </g>
    </g>
</svg>