<?xml version="1.0" encoding="UTF-8"?>
<svg width="82px" height="82px" viewBox="0 0 82 82" version="1.1" xmlns="http://www.w3.org/2000/svg" xmlns:xlink="http://www.w3.org/1999/xlink">
    <title>noun_Rocket_3990676</title>
    <g id="页面-1" stroke="none" stroke-width="1" fill="none" fill-rule="evenodd">
        <g id="画板" transform="translate(-684.000000, -600.000000)" fill="#000000" fill-rule="nonzero">
            <g id="编组-4" transform="translate(214.000000, 582.000000)">
                <g id="编组" transform="translate(470.000000, 18.000000)">
                    <path d="M80.378599,0 C75.4996929,0 69.8247132,1.05881675 63.8896304,3.04409815 C63.8849012,3.04567377 63.8817484,3.04409815 63.8770193,3.04567377 C63.8738665,3.04724939 63.8722901,3.04882501 63.8691374,3.05040063 C63.3883405,3.21111389 62.9075436,3.36710028 62.4235939,3.5404185 C62.3763024,3.55775032 62.3274346,3.57823338 62.2801431,3.60186769 C61.0820918,4.03358761 59.9045335,4.5015468 58.7443155,4.98998905 C58.7380099,4.99156467 58.7317044,4.99629153 58.7253989,4.99786715 C51.5307858,8.0262091 45.1417045,12.0613723 40.8334491,16.3675422 L32.4407848,24.756144 L25.4384904,24.756144 C22.068183,24.756144 18.8996527,26.0686356 16.5145849,28.4509732 L8.10773309,36.8537555 C7.65215833,37.3091098 7.51974214,37.9960802 7.77353984,38.5885133 C8.02103201,39.1683416 8.59325913,39.5433392 9.22223604,39.5433392 C9.2348471,39.5433392 9.24745817,39.5433392 9.26006924,39.5433392 L22.6530212,39.220337 C22.0114332,42.7292431 22.3992235,46.3752282 23.9015168,49.657245 C19.3426164,54.3352612 15.8367401,60.5053898 18.6931465,63.3604135 C19.4088245,64.0773207 20.3341615,64.3924447 21.393491,64.3924447 C24.5588686,64.3924447 28.9081099,61.557904 32.417139,58.1372327 C34.6887073,59.1724151 37.1242194,59.7097016 39.5802244,59.7097016 C40.672658,59.7097016 41.7650916,59.5978326 42.8464905,59.40088 L42.5233319,72.7905002 C42.5075681,73.4349288 42.8859001,74.0226351 43.4786202,74.27631 C43.6788209,74.3613935 43.8900562,74.4039352 44.0997152,74.4039352 C44.5095748,74.4039352 44.9131289,74.243222 45.2142181,73.9422785 L53.6210699,65.5394962 C56.0045614,63.1555829 57.3176886,59.9885864 57.3176886,56.6199105 L57.3176886,49.6162788 L65.6472977,41.2812482 C69.9855043,36.9577465 74.0352329,30.5307918 77.0618887,23.2892416 C77.0618887,23.287666 77.0634651,23.287666 77.0634651,23.2860903 C77.5694841,22.0760141 78.0534337,20.8501816 78.4979738,19.6007148 C78.6634941,19.1359068 78.8116741,18.6758258 78.9661596,18.2141691 C78.9724652,18.2015641 78.9819235,18.1905348 78.988229,18.1779298 C78.9961109,18.1590223 78.9913818,18.1385393 78.9992637,18.1180562 C80.9823538,12.162212 82.0243431,6.46634514 81.9995683,1.56774206 C81.9912391,0.699575351 81.2456098,0 80.378599,0 Z M23.5326431,36.047038 L13.1222082,36.2975616 L18.7420144,30.6789001 C20.5312094,28.8921469 22.9083953,27.9073843 25.436914,27.9073843 L29.2864419,27.9073843 L27.8140999,29.3790135 C25.8783013,31.3170263 24.4485217,33.6064024 23.5326431,36.047038 Z M29.4819134,45.0595853 C28.4509588,45.7166189 27.4026639,46.4870972 26.3638274,47.3662933 C25.3896225,44.7145245 25.247748,41.829564 25.8909124,39.0722287 C26.8209785,41.3363949 28.2633692,43.4776627 29.4819134,45.0595853 Z M30.5160208,55.597333 C25.5504136,60.5621121 21.4455117,61.6540169 20.9221524,61.1324866 C20.401946,60.6109563 21.4959559,56.5048902 26.4615631,51.5432623 C28.6543122,49.3515747 31.0031232,47.6105144 33.0729144,46.641508 C34.2930351,46.0711335 35.1285182,45.9167227 35.6014331,45.9167227 C35.8552308,45.9167227 36.0049873,45.9608401 36.0538551,46.0096843 C36.1925769,46.1483389 36.2997709,47.1126184 35.4217255,48.989182 C34.4506734,51.0595469 32.7071935,53.4056453 30.5160208,55.597333 Z M34.6950128,55.6934458 C35.576211,54.6535365 36.3502152,53.6025979 37.007567,52.568991 C38.6170543,53.8027016 40.7751229,55.2317891 43.0593022,56.1503757 C40.2832914,56.8089849 37.3701351,56.6719059 34.6950128,55.6934458 Z M54.1633458,56.6183348 C54.1633458,59.1456296 53.1781062,61.5216648 51.3904877,63.3099937 L45.7706814,68.9286552 L46.0229027,58.5138059 C48.4678731,57.5983706 50.7615107,56.17401 52.7004621,54.2359972 L54.1649222,52.7706704 L54.1649222,56.6183348 L54.1633458,56.6183348 Z M63.4167154,39.0517457 L50.4698798,52.0064946 C49.8992291,52.5768691 49.2907452,53.0920969 48.6554627,53.5584805 C48.65231,53.5600561 48.6475808,53.5600561 48.6444281,53.5632073 C46.7622265,54.6503853 42.7692477,53.1047019 38.5177421,49.7376016 C39.8876192,46.4445555 39.1798231,44.6767096 38.2812846,43.7801818 C37.385899,42.8820783 35.617197,42.1714736 32.3162505,43.54699 C29.1366855,39.5512173 27.5445384,35.7098553 28.2933205,33.7040908 C28.8103742,32.9667006 29.3904832,32.2608228 30.0446822,31.6069404 L34.206334,27.4473032 C34.2079104,27.4457276 34.2079104,27.4457276 34.2094867,27.444152 L43.062455,18.5954691 C46.6897128,14.9699671 51.939069,11.5351152 57.9230198,8.79196049 C58.5551495,11.8817516 60.5681909,15.3166036 63.6515965,18.3953654 C66.7350021,21.4725515 70.1730939,23.4767404 73.2628051,24.1038372 C70.5198983,30.1305843 67.0707717,35.4089119 63.4167154,39.0517457 Z M74.5349464,21.1337932 C71.9701708,20.8375766 68.7023284,18.9814961 65.8806024,16.1658628 C63.0573,13.348654 61.194015,10.0729397 60.8945022,7.51570816 C61.6606245,7.20688661 62.4330522,6.90594316 63.2149383,6.62233153 C63.2133619,6.64439022 63.2196675,6.66487328 63.2180911,6.68535634 C63.1408483,8.27515708 64.4602811,11.3901581 67.553145,14.4815249 C70.6633491,17.5902235 73.7956226,18.8995638 75.3924988,18.8129047 C75.4019571,18.8129047 75.4129918,18.8144803 75.4224501,18.8144803 C75.1402775,19.5959879 74.8423411,20.3680418 74.5349464,21.1337932 Z M76.4313354,15.7262648 C76.0277813,15.6774206 75.6210744,15.642757 75.2112148,15.6663913 C74.6910083,15.7325673 72.4147109,14.8817324 69.774269,12.2425686 C67.162202,9.63334166 66.364552,7.36444863 66.3677048,6.85709894 C66.3929269,6.43483273 66.3613993,6.01571777 66.3093786,5.59817843 C70.7311336,4.23054013 75.0441181,3.37812962 78.8116741,3.19220644 C78.6398483,6.95478739 77.7964833,11.2845916 76.4313354,15.7262648 Z" id="形状"></path>
                    <path d="M51.6348271,19.9174144 C48.7768442,19.9174144 46.0906872,21.0298023 44.0713403,23.0481717 C42.050417,25.0665411 40.9390668,27.7513979 40.9390668,30.6079972 C40.9390668,33.4645966 42.050417,36.1494533 44.0713403,38.1678228 C46.0906872,40.1877678 48.7768442,41.29858 51.6348271,41.29858 C54.4928099,41.29858 57.1789669,40.1861922 59.1983138,38.1678228 C61.2192371,36.1478777 62.3305873,33.4645966 62.3305873,30.6079972 C62.3305873,27.7513979 61.2192371,25.0665411 59.1983138,23.0481717 C57.1789669,21.0298023 54.4928099,19.9174144 51.6348271,19.9174144 Z M56.9693079,35.9414715 C55.5458339,37.3658321 53.6510212,38.1489153 51.6348271,38.1489153 C49.6186329,38.1489153 47.7253966,37.3642565 46.3003462,35.9414715 C44.8752957,34.5171109 44.0918333,32.624791 44.0918333,30.6095729 C44.0918333,28.5959303 44.8752957,26.7020349 46.3003462,25.2776742 C47.7238202,23.8533136 49.6186329,23.0702304 51.6348271,23.0702304 C53.6510212,23.0702304 55.5442575,23.8548892 56.9693079,25.2776742 C58.3943584,26.7020349 59.1778209,28.5943547 59.1778209,30.6095729 C59.1778209,32.6232154 58.3943584,34.5171109 56.9693079,35.9414715 Z" id="形状"></path>
                    <path d="M2.69128028,50.3190054 L9.28056222,43.7329132 C9.89692806,43.1168457 9.89692806,42.1210537 9.28056222,41.5049863 C8.66419637,40.8889188 7.66792217,40.8889188 7.05155632,41.5049863 L0.462274385,48.0910785 C-0.154091462,48.707146 -0.154091462,49.702938 0.462274385,50.3190054 C0.769669116,50.6262514 1.17322322,50.7806621 1.57677733,50.7806621 C1.98033144,50.7806621 2.38388555,50.6262514 2.69128028,50.3190054 Z" id="路径"></path>
                    <path d="M17.3689846,64.6398171 C16.7526188,64.0237496 15.7563446,64.0237496 15.1399787,64.6398171 L4.94235555,74.8309283 C4.3259897,75.4469958 4.3259897,76.4427877 4.94235555,77.0588552 C5.24975028,77.3661011 5.65330439,77.5205119 6.0568585,77.5205119 C6.46041261,77.5205119 6.86396671,77.3661011 7.17136145,77.0588552 L17.3689846,66.867744 C17.9837741,66.2532521 17.9837741,65.2558846 17.3689846,64.6398171 Z" id="路径"></path>
                    <path d="M12.7580636,52.9723498 C12.1416978,52.3562823 11.1454236,52.3562823 10.5290577,52.9723498 L1.89835951,61.5988702 C1.28199367,62.2149376 1.28199367,63.2107296 1.89835951,63.8267971 C2.20575425,64.134043 2.60930835,64.2884538 3.01286246,64.2884538 C3.41641657,64.2884538 3.81997068,64.134043 4.12736541,63.8267971 L12.7580636,55.2002767 C13.3744295,54.5857848 13.3744295,53.5884173 12.7580636,52.9723498 Z" id="路径"></path>
                    <path d="M38.2860138,72.7243241 L31.6967319,79.3104164 C31.080366,79.9264839 31.080366,80.9222758 31.6967319,81.5383433 C32.0041266,81.8455892 32.4076807,82 32.8112348,82 C33.2147889,82 33.618343,81.8455892 33.9257378,81.5383433 L40.5150197,74.952251 C41.1313855,74.3361835 41.1313855,73.3403916 40.5150197,72.7243241 C39.8986539,72.1082566 38.9023796,72.1082566 38.2860138,72.7243241 Z" id="路径"></path>
                    <path d="M26.8130966,69.248506 L18.1823984,77.8750264 C17.5660325,78.4910939 17.5660325,79.4868858 18.1823984,80.1029533 C18.4897931,80.4101993 18.8933472,80.56461 19.2969013,80.56461 C19.7004554,80.56461 20.1040095,80.4101993 20.4114043,80.1029533 L29.0421025,71.4764329 C29.6584683,70.8603655 29.6584683,69.8645735 29.0421025,69.248506 C28.4257366,68.6324386 27.4294624,68.6324386 26.8130966,69.248506 Z" id="路径"></path>
                </g>
            </g>
        </g>
    </g>
</svg>